# xmcd CD database file
#
# Track frame offsets:
#	150
#	18830
#	39562
#	57887
#	74175
#	98280
#	111257
#	140890
#	156327
#	170940
#	189410
#	208847
#	225762
#	250157
#	262355
#	283777
#	299350
#	315030
#	341510
#
# Disc length: 4795 seconds
#
# Revision: 0
# Processed by: cddbd v1.5.1PL0 Copyright (c) Steve Scherf et al.
# Submitted via: CDex 1.51
#
DISCID=2012b913
DTITLE=Arno - Rareties and Unreleased Tracks
DYEAR=2002
DGENRE=Jazz
TTITLE0=I'm Not Myself (With Tom Barman and Stef Kamil Cartens)
TTITLE1=La La La
TTITLE2=Dance Dance (Instrumental)
TTITLE3=Don't Play Cello
TTITLE4=Watch Out Boy (Ultima Vez Remix)
TTITLE5=All The Young Dudes
TTITLE6=Baby Talk
TTITLE7=Je Ne Veux pas être grand (video version)
TTITLE8=Be Bop La Lula
TTITLE9=Drive My Car
TTITLE10=Rollin' And Tumblin'
TTITLE11=Vive Ma Liberté (Kwanzaa Posse Remix)
TTITLE12=Putain Putain (En Fanfare)
TTITLE13=Guilty
TTITLE14=Jus de Flûte
TTITLE15=Buena Serra Signorina
TTITLE16=Whoop That Thing (Technotronix Remix)
TTITLE17=Hey Sister (French Version)
TTITLE18=Data
EXTD=YEAR: 2002
EXTT0=
EXTT1=
EXTT2=
EXTT3=
EXTT4=
EXTT5=
EXTT6=
EXTT7=
EXTT8=
EXTT9=
EXTT10=
EXTT11=
EXTT12=
EXTT13=
EXTT14=
EXTT15=
EXTT16=
EXTT17=
EXTT18=
PLAYORDER=
